<svg viewBox="0 0 512 512" fill="none" xmlns="http://www.w3.org/2000/svg">
  <rect width="512" height="512" rx="128" fill="#0f172a"/>
  <path d="M422.4 256c0-55.2-44.8-100-100-100H285.7L285.3 35.5L55.2 265.6C42.7 278.1 35.2 295.8 35.2 314.7C35.2 369.9 80 414.7 135.2 414.7H170.1L170.1 604.5L396.7 378.9C409.2 366.4 416.7 348.7 416.7 329.8C416.7 274.6 371.9 229.8 316.7 229.8H285.7L285.7 256H422.4Z" fill="#ffffff"/>
  <path fill-rule="evenodd" clip-rule="evenodd" d="M422.4 256c0-55.2-44.8-100-100-100H285.7L285.3 35.5L55.2 265.6C42.7 278.1 35.2 295.8 35.2 314.7C35.2 369.9 80 414.7 135.2 414.7H170.1L170.1 604.5L396.7 378.9C409.2 366.4 416.7 348.7 416.7 329.8C416.7 274.6 371.9 229.8 316.7 229.8H285.7L285.7 256H422.4Z" fill="#3b82f6"/>
</svg> 